<?xml version="1.0" standalone="no"?><!DOCTYPE svg PUBLIC "-//W3C//DTD SVG 1.1//EN" "http://www.w3.org/Graphics/SVG/1.1/DTD/svg11.dtd"><svg t="1591754363642" class="icon" viewBox="0 0 1024 1024" version="1.1" xmlns="http://www.w3.org/2000/svg" p-id="2753" xmlns:xlink="http://www.w3.org/1999/xlink" width="200" height="200"><defs><style type="text/css"></style></defs><path d="M921.6 51.2a51.2 51.2 0 0 1 51.2 51.2v665.6a51.2 51.2 0 0 1-51.2 51.2H102.4a51.2 51.2 0 0 1-51.2-51.2V102.4a51.2 51.2 0 0 1 51.2-51.2h819.2m0-51.2H102.4a102.4 102.4 0 0 0-102.4 102.4v665.6a102.4 102.4 0 0 0 102.4 102.4h819.2a102.4 102.4 0 0 0 102.4-102.4V102.4a102.4 102.4 0 0 0-102.4-102.4z" p-id="2754"></path><path d="M102.4 972.8l819.2 0 0 51.2-819.2 0 0-51.2Z" p-id="2755"></path><path d="M537.088 204.8a25.6 25.6 0 0 1 25.6 25.6v60.928a153.6 153.6 0 0 1 48.128 27.648l51.2-30.208a25.6 25.6 0 0 1 35.328 9.216l25.6 44.032a25.6 25.6 0 0 1-9.216 35.328l-51.2 30.208a139.776 139.776 0 0 1 0 55.808l51.2 30.208a25.6 25.6 0 0 1 9.216 35.328l-25.6 44.032a25.6 25.6 0 0 1-35.328 9.216l-51.2-30.208a153.6 153.6 0 0 1-48.128 27.648v60.416a25.6 25.6 0 0 1-25.6 25.6h-51.2a25.6 25.6 0 0 1-25.6-25.6v-60.416a153.6 153.6 0 0 1-48.128-27.648l-51.2 30.208a25.6 25.6 0 0 1-35.328-9.216l-25.6-44.032a25.6 25.6 0 0 1 7.168-35.84l51.2-30.208A139.776 139.776 0 0 1 360.96 409.6L307.2 377.344a25.6 25.6 0 0 1-9.216-35.328l25.6-44.032A25.6 25.6 0 0 1 358.4 288.768l51.2 30.208a153.6 153.6 0 0 1 51.2-27.648V230.4a25.6 25.6 0 0 1 25.6-25.6h51.2m0-51.2h-51.2A77.312 77.312 0 0 0 409.6 230.4V256l-23.552-13.824a76.8 76.8 0 0 0-104.96 28.16l-25.088 46.08a77.312 77.312 0 0 0 28.16 104.96L307.2 435.2l-23.552 13.824A77.312 77.312 0 0 0 256 553.984l25.6 44.032a76.8 76.8 0 0 0 104.96 28.16L409.6 614.4v27.136A77.312 77.312 0 0 0 486.4 716.8h51.2a77.312 77.312 0 0 0 76.8-76.8V614.4l23.552 13.824a76.8 76.8 0 0 0 104.96-28.16l25.6-44.032a77.312 77.312 0 0 0-28.16-104.96L716.8 435.2l23.552-13.824A77.312 77.312 0 0 0 768 316.416l-25.6-44.032a76.8 76.8 0 0 0-104.96-28.16L614.4 256v-25.6A77.312 77.312 0 0 0 537.088 153.6z" p-id="2756"></path><path d="M512 384a51.2 51.2 0 1 1-51.2 51.2 51.2 51.2 0 0 1 51.2-51.2m0-51.2a102.4 102.4 0 1 0 102.4 102.4 102.4 102.4 0 0 0-102.4-102.4z" p-id="2757"></path></svg>