<?xml version="1.0" standalone="no"?><!DOCTYPE svg PUBLIC "-//W3C//DTD SVG 1.1//EN" "http://www.w3.org/Graphics/SVG/1.1/DTD/svg11.dtd"><svg t="1591690642331" class="icon" viewBox="0 0 1024 1024" version="1.1" xmlns="http://www.w3.org/2000/svg" p-id="561" xmlns:xlink="http://www.w3.org/1999/xlink" width="200" height="200"><defs><style type="text/css"></style></defs><path d="M178.730368 448.278738v226.23413c0 175.689587-9.325063 154.471691 187.85271199 264.615547l145.95750301 84.466147v-108.116668l-229.747921-131.091461c-17.163521-11.487396-13.51458399-7.973604-13.514584-55.004356l241.775901 137.30817 1.081167-331.242444L269.818662 676.675201l0.810875-179.743962c81.087502-44.057543 160.01267-91.493731 240.965025-135.145836v-104.738023z" fill="#33E7D8" p-id="562"></path><path d="M511.594562 361.379966l244.208526 140.551669v43.787251l-243.938234-136.49729401v77.70885501l242.992213 138.524482v148.66042l-243.262505 141.767982v108.116669l216.233338-124.334169c130.550878-71.221856 116.360565-67.572918 116.360565-224.747526v-229.747921L511.459417 257.04738zM511.864854 211.503233l333.404778 189.204171V190.420483l-95.277815-51.490564v99.061898l-142.849148-79.330605V51.625709L512.135146 0l-0.270292 211.503233z" fill="#246ADF" p-id="563"></path><path d="M178.460077 402.329154l333.404777-190.825921L512.135146 0l-95.548106 55.544939v103.116273L277.65712 237.991817v-99.061898L178.460077 190.420483v211.908671z" fill="#33E7D8" p-id="564"></path><path d="M511.189125 866.690247l-0.135146 1.351458 202.583608-113.522502-0.405437-102.845981-201.097004-116.225419-0.946021 331.242444z" fill="#246ADF" p-id="565"></path><path d="M178.460077 402.329154l23.24508301 32.705292 309.75425699-177.987066 310.700277 174.338129 23.109938-30.678105-333.404778-189.204171L178.460077 402.329154zM512.135146 535.447803l201.097004 116.225419 0.405437 102.845981-202.583608 113.522502 0.675729 47.436189 243.262505-141.76798201V625.725221L511.594562 487.200739l0.540584 48.247064z" p-id="566"></path><path d="M512.135146 535.447803l-0.675729-48.247064-200.421275 114.468523c2.027188-97.710439-11.892834-71.221856 51.490563-108.116669l148.66042-84.06071v-48.111917c-81.087502 44.057543-159.336941 91.493731-240.965026 135.145836l-0.81087499 179.743962z" fill="#FFFFFF" p-id="567"></path><path d="M511.459417 487.200739V409.491883l-148.66042 84.06071c-63.383397 36.894813-49.463376 10.406229-51.490564 108.116669z" fill="#33E7D8" p-id="568"></path><path d="M511.729708 915.477894l-0.675729-46.76046L269.683516 729.382077c0 47.030751-4.054375 43.516959 13.514584 55.004356z" fill="#FFFFFF" p-id="569"></path><path d="M511.864854 409.627029l244.07338 136.091857v-43.787251l-244.343672-140.551669 0.270292 48.247063z" p-id="570"></path></svg>